# xmcd
#
# Track frame offsets:
#	150
#	11880
#	27054
#	40102
#	54900
#	69857
#	83935
#	97035
#	111488
#	126233
#	138473
#	155826
#	168226
#	180726
#	195635
#
# Disc length: 2825 seconds
#
# Revision: 0
# Processed by: cddbd v1.5.2PL0 Copyright (c) Steve Scherf et al.
# Submitted via: audiograbber 1.83.01
#
DISCID=cb0b070f
DTITLE=Various Artist - CB-E9-02
DYEAR=2008
DGENRE=Karaoke
TTITLE0=Porter Wagoner - Y'all Come
TTITLE1=Merle Haggard - Branded Man
TTITLE2=Tammy Wynette - He Loves Me All The Way
TTITLE3=Jerry Wallace - In The Misty Moonlight
TTITLE4=George Jones - She Loved A Lot In Her Time
TTITLE5=Loretta Lynn - Hey Loretta
TTITLE6=Bobby Bare - Streets Of Baltimore, The
TTITLE7=Glen Campbell - Gentle On My Mind
TTITLE8=Brenda Lee - Nobody Wins
TTITLE9=Merle Haggard - Today I Started Loving You Again
TTITLE10=Ray Stevens - Along Came Jones
TTITLE11=Tammy Wynette - Ways To Love A Man, The
TTITLE12=Jack Greene - Back In The Arms Of Love
TTITLE13=Charley Pride - Kaw-Liga
TTITLE14=Melba Montgomery - No Charge
EXTD=
EXTT0=
EXTT1=
EXTT2=
EXTT3=
EXTT4=
EXTT5=
EXTT6=
EXTT7=
EXTT8=
EXTT9=
EXTT10=
EXTT11=
EXTT12=
EXTT13=
EXTT14=
PLAYORDER=
